<svg width="23" height="24" viewBox="0 0 23 24" fill="none" xmlns="http://www.w3.org/2000/svg">
<path d="M1.36902 5.88763H3.59124M3.59124 5.88763H21.369M3.59124 5.88763L3.59117 20.6133C3.59117 21.1713 3.82529 21.7063 4.24204 22.1009C4.65879 22.4954 5.22402 22.717 5.81339 22.717H16.9245C17.5139 22.717 18.0791 22.4954 18.4958 22.1009C18.9126 21.7063 19.1467 21.1713 19.1467 20.6133V5.88764M6.9245 5.88764V3.78397C6.9245 3.22604 7.15863 2.69096 7.57537 2.29645C7.99212 1.90193 8.55735 1.6803 9.14672 1.6803H13.5912C14.1805 1.6803 14.7458 1.90193 15.1625 2.29645C15.5793 2.69096 15.8134 3.22604 15.8134 3.78397V5.88764M9.14671 11.1468V17.4579M13.5913 11.1468V17.4579" stroke="#5F5F5F" stroke-width="1.43123" stroke-linecap="round" stroke-linejoin="round"/>
</svg>
