<svg width="22" height="23" viewBox="0 0 22 23" fill="none" xmlns="http://www.w3.org/2000/svg">
<path d="M1 5.20733H3.22222M3.22222 5.20733H21M3.22222 5.20733L3.22215 19.933C3.22215 20.491 3.45627 21.026 3.87302 21.4206C4.28977 21.8151 4.855 22.0367 5.44437 22.0367H16.5555C17.1449 22.0367 17.7101 21.8151 18.1268 21.4206C18.5436 21.026 18.7777 20.491 18.7777 19.933V5.20734M6.55548 5.20734V3.10367C6.55548 2.54574 6.78961 2.01067 7.20636 1.61615C7.6231 1.22164 8.18833 1 8.7777 1H13.2221C13.8115 1 14.3767 1.22164 14.7935 1.61615C15.2102 2.01067 15.4444 2.54574 15.4444 3.10367V5.20734M8.77769 10.4665V16.7776M13.2223 10.4665V16.7776" stroke="white" stroke-linecap="round" stroke-linejoin="round"/>
</svg>
