<svg width="22" height="24" viewBox="0 0 22 24" fill="none" xmlns="http://www.w3.org/2000/svg">
<path d="M9.94576 3.89813H2.98795C2.46071 3.89813 1.95507 4.11843 1.58226 4.51057C1.20944 4.9027 1 5.43455 1 5.98912V20.626C1 21.1806 1.20944 21.7124 1.58226 22.1046C1.95507 22.4967 2.46071 22.717 2.98795 22.717H16.9036C17.4308 22.717 17.9364 22.4967 18.3093 22.1046C18.6821 21.7124 18.8915 21.1806 18.8915 20.626V13.3076M17.4005 2.32988C17.7959 1.91396 18.3322 1.6803 18.8915 1.6803C19.4507 1.6803 19.987 1.91396 20.3824 2.32988C20.7779 2.74581 21 3.30992 21 3.89812C21 4.48633 20.7779 5.05044 20.3824 5.46636L10.9397 15.3986L6.96379 16.444L7.95776 12.2621L17.4005 2.32988Z" stroke="#5F5F5F" stroke-width="1.43123" stroke-linecap="round" stroke-linejoin="round"/>
</svg>
